# xmcd
#
# Track frame offsets:
#	150
#	13812
#	30582
#	44880
#	67010
#	83593
#	102360
#	118875
#	135386
#	151108
#	166035
#	186577
#	207947
#	226985
#
# Disc length: 3268 seconds
#
# Revision: 0
# Processed by: cddbd v1.5.2PL0 Copyright (c) Steve Scherf et al.
# Submitted via: EasyCDDAExtractor 10.0.3.1
#
DISCID=bb0cc20e
DTITLE=Various Artist - HC 2010 - 02
DYEAR=2010
DGENRE=Country
TTITLE0=Jewel - Stay Here Forever  [ Single Edit ]
TTITLE1=Martina Mcbride - Wrong Baby Wrong  [ Single Edit ]
TTITLE2=Mustang Creek - Love Makes The World Go Round  [ Radio Version ]
TTITLE3=Ledisi - Higher Than This
TTITLE4=Janet Jackson - Make Me
TTITLE5=Trey Songz   Feat.  Drake - I Invented Sex
TTITLE6=Lawson Rollins - Moonlight Samba [ Instrumental Radio Edit ]
TTITLE7=Lawson Rollins - Moonlight Samba [ Radio Edit With Vocals ]
TTITLE8=Marc Staggers - Let Me Take You To A Place
TTITLE9=Chris Standring - Bossa Blue  [ Radio Edit ]
TTITLE10=Le Kat - Best I Ever Had  [ Album Version ]
TTITLE11=Joe Taylor - Built For It  [ Album Version ]
TTITLE12=Freddie Washington - Set It Off
TTITLE13=Marty Q - Table For 2
EXTD=
EXTT0=
EXTT1=
EXTT2=
EXTT3=
EXTT4=
EXTT5=
EXTT6=
EXTT7=
EXTT8=
EXTT9=
EXTT10=
EXTT11=
EXTT12=
EXTT13=
PLAYORDER=
